<svg width="128" height="128" viewBox="0 0 128 128" fill="none" xmlns="http://www.w3.org/2000/svg">
<path d="M6 20.5C6 12.4919 12.4919 6 20.5 6H35V35H6V20.5Z" fill="#733066"/>
<rect x="6" y="35" width="29" height="29" fill="#56244C"/>
<rect x="35" y="6" width="29" height="29" fill="#903C7F"/>
<rect x="35" y="35" width="29" height="29" fill="#733066"/>
<rect x="64" y="6" width="29" height="29" fill="#AD4899"/>
<path d="M6 64H64V122H20.5C12.4919 122 6 115.508 6 107.5V64Z" fill="#3A1533"/>
<rect x="64" y="35" width="29" height="29" fill="#903C7F"/>
<rect x="64" y="64" width="29" height="29" fill="#733066"/>
<rect x="35" y="64" width="29" height="29" fill="#56244C"/>
<rect x="64" y="93" width="29" height="29" fill="#56244C"/>
<path d="M6 64H49.5C57.5081 64 64 70.4919 64 78.5V122L6 64Z" fill="#EA430C"/>
<path d="M93 6H107.5C115.508 6 122 12.4919 122 20.5V35H93V6Z" fill="#BD61AA"/>
<rect x="93" y="35" width="29" height="29" fill="#AD4899"/>
<rect x="93" y="64" width="29" height="29" fill="#903C7F"/>
<path d="M93 93H122V107.5C122 115.508 115.508 122 107.5 122H93V93Z" fill="#733066"/>
</svg>
