<svg width="2560" height="512" viewBox="0 0 2560 512" fill="none" xmlns="http://www.w3.org/2000/svg">
<g clip-path="url(#clip0_27_360)">
<path d="M2560 0H0V512H2560V0Z" fill="#56244C"/>
<path d="M1101.47 122.102C1101.47 97.4515 1121.45 77.4688 1146.1 77.4688H1190.73V166.734H1101.47V122.102Z" fill="#733066"/>
<rect x="1101.47" y="166.734" width="89.2656" height="89.2656" fill="#56244C"/>
<rect x="1190.73" y="77.4688" width="89.2656" height="89.2656" fill="#903C7F"/>
<rect x="1190.73" y="166.734" width="89.2656" height="89.2656" fill="#733066"/>
<rect x="1280" y="77.4688" width="89.2656" height="89.2656" fill="#AD4899"/>
<path d="M1101.47 256H1280V434.531H1146.1C1121.45 434.531 1101.47 414.548 1101.47 389.898V256Z" fill="#3A1533"/>
<rect x="1280" y="166.734" width="89.2656" height="89.2656" fill="#903C7F"/>
<rect x="1280" y="256" width="89.2656" height="89.2656" fill="#733066"/>
<rect x="1190.73" y="256" width="89.2656" height="89.2656" fill="#56244C"/>
<rect x="1280" y="345.266" width="89.2656" height="89.2656" fill="#56244C"/>
<path d="M1101.47 256H1235.37C1260.02 256 1280 275.983 1280 300.633V434.531L1101.47 256Z" fill="#EA430C"/>
<path d="M1369.27 77.4688H1413.9C1438.55 77.4688 1458.53 97.4515 1458.53 122.102V166.734H1369.27V77.4688Z" fill="#BD61AA"/>
<rect x="1369.27" y="166.734" width="89.2656" height="89.2656" fill="#AD4899"/>
<rect x="1369.27" y="256" width="89.2656" height="89.2656" fill="#903C7F"/>
<path d="M1369.27 345.266H1458.53V389.898C1458.53 414.548 1438.55 434.531 1413.9 434.531H1369.27V345.266Z" fill="#733066"/>
</g>
<defs>
<clipPath id="clip0_27_360">
<rect width="2560" height="512" fill="white"/>
</clipPath>
</defs>
</svg>
